<svg xmlns="http://www.w3.org/2000/svg" width="341.333" height="341.333" viewBox="0 0 256 256" preserveAspectRatio="xMidYMid meet"  xmlns:v="https://vecta.io/nano"><path d="M72.8 33.6C53.9 38.1 38 54.2 33.5 73.2c-2.2 9.2-2.2 100.4 0 109.6 4.6 19.2 20.5 35.1 39.7 39.7 9.2 2.2 100.4 2.2 109.6 0 19.2-4.6 35.1-20.5 39.7-39.7 2.2-9.2 2.2-100.4 0-109.6-4.6-19.2-20.5-35.1-39.7-39.7-8.9-2.1-101.4-2-110 .1zm123.7 21C199.6 56 203 61 203 64c0 .7-.7 2.7-1.6 4.5-1.9 4.1-7.3 6.9-11.4 6-3.7-.8-7.7-4.8-8.5-8.5-.9-4 1.9-9.5 5.8-11.4 4-2 5.1-2 9.2 0zm-55 21.9c13.5 3.5 26.8 14 33.2 26.1 11.2 21 7.5 46.2-9.2 62.9-20.8 20.8-54.2 20.8-75 0-16.7-16.7-20.4-41.9-9.2-62.9 6.2-11.9 19.7-22.5 32.8-26 7.2-1.9 20.1-2 27.4-.1zM118 97.6c-22.7 8.2-29.3 36.2-12.5 52.9 6.5 6.6 12.5 9 22.5 9s16-2.4 22.5-9c6.6-6.5 9-12.5 9-22.5s-2.4-16-9-22.5c-8.2-8.2-22.2-11.6-32.5-7.9z"/><defs /></svg>