<?xml version="1.0" standalone="no"?>
<!DOCTYPE svg PUBLIC "-//W3C//DTD SVG 20010904//EN"
 "http://www.w3.org/TR/2001/REC-SVG-20010904/DTD/svg10.dtd">
<svg version="1.0" xmlns="http://www.w3.org/2000/svg"
 width="256.000000pt" height="256.000000pt" viewBox="0 0 256.000000 256.000000"
 preserveAspectRatio="xMidYMid meet">

<g transform="translate(0.000000,256.000000) scale(0.100000,-0.100000)"
fill="#000000" stroke="none">
<path d="M728 2224 c-189 -45 -348 -206 -393 -396 -22 -92 -22 -1004 0 -1096
46 -192 205 -351 397 -397 92 -22 1004 -22 1096 0 192 46 351 205 397 397 22
92 22 1004 0 1096 -46 192 -205 351 -397 397 -89 21 -1014 20 -1100 -1z m1237
-210 c31 -14 65 -64 65 -94 0 -7 -7 -27 -16 -45 -19 -41 -73 -69 -114 -60 -37
8 -77 48 -85 85 -9 40 19 95 58 114 40 20 51 20 92 0z m-550 -219 c135 -35
268 -140 332 -261 112 -210 75 -462 -92 -629 -208 -208 -542 -208 -750 0 -167
167 -204 419 -92 629 62 119 197 225 328 260 72 19 201 20 274 1z"/>
<path d="M1180 1584 c-227 -82 -293 -362 -125 -529 65 -66 125 -90 225 -90
100 0 160 24 225 90 66 65 90 125 90 225 0 100 -24 160 -90 225 -82 82 -222
116 -325 79z"/>
</g>
</svg>
